<svg width="137" height="46" viewBox="0 0 137 46" fill="none" xmlns="http://www.w3.org/2000/svg">
<path d="M57.65 23.41C57.65 21.19 58.05 19.27 58.85 17.65C59.67 16.03 60.84 14.78 62.36 13.9C63.88 13 65.69 12.55 67.79 12.55C69.87 12.55 71.67 13 73.19 13.9C74.71 14.78 75.88 16.03 76.7 17.65C77.54 19.27 77.96 21.18 77.96 23.38C77.96 25.6 77.54 27.53 76.7 29.17C75.88 30.79 74.71 32.05 73.19 32.95C71.67 33.85 69.87 34.3 67.79 34.3C65.69 34.3 63.88 33.85 62.36 32.95C60.86 32.05 59.7 30.79 58.88 29.17C58.06 27.53 57.65 25.61 57.65 23.41ZM61.7 23.41C61.7 25.79 62.21 27.65 63.23 28.99C64.25 30.33 65.77 31 67.79 31C69.75 31 71.26 30.33 72.32 28.99C73.38 27.65 73.91 25.79 73.91 23.41C73.91 21.01 73.38 19.15 72.32 17.83C71.28 16.51 69.77 15.85 67.79 15.85C65.77 15.85 64.25 16.51 63.23 17.83C62.21 19.15 61.7 21.01 61.7 23.41ZM81.9233 34V22.72C81.9233 22.08 81.9033 21.43 81.8633 20.77C81.8433 20.11 81.7933 19.47 81.7133 18.85H85.3433L85.7633 22.99H85.1633C85.3633 21.99 85.6933 21.16 86.1533 20.5C86.6333 19.84 87.2133 19.35 87.8933 19.03C88.5733 18.71 89.3133 18.55 90.1133 18.55C90.4733 18.55 90.7633 18.57 90.9833 18.61C91.2033 18.63 91.4233 18.68 91.6433 18.76L91.6133 22.06C91.2333 21.9 90.9033 21.8 90.6233 21.76C90.3633 21.72 90.0333 21.7 89.6333 21.7C88.7733 21.7 88.0433 21.88 87.4433 22.24C86.8633 22.6 86.4233 23.1 86.1233 23.74C85.8433 24.38 85.7033 25.11 85.7033 25.93V34H81.9233ZM94.0306 34V18.85H97.7806V34H94.0306ZM93.8206 16V12.34H97.9906V16H93.8206ZM108.993 34.3C107.433 34.3 106.083 33.98 104.943 33.34C103.803 32.7 102.913 31.79 102.273 30.61C101.653 29.43 101.343 28.03 101.343 26.41C101.343 24.79 101.653 23.4 102.273 22.24C102.913 21.06 103.803 20.15 104.943 19.51C106.083 18.87 107.433 18.55 108.993 18.55C110.553 18.55 111.903 18.87 113.043 19.51C114.203 20.15 115.093 21.06 115.713 22.24C116.353 23.4 116.673 24.79 116.673 26.41C116.673 28.03 116.353 29.43 115.713 30.61C115.093 31.79 114.203 32.7 113.043 33.34C111.903 33.98 110.553 34.3 108.993 34.3ZM108.993 31.42C110.173 31.42 111.113 31.01 111.813 30.19C112.513 29.35 112.863 28.09 112.863 26.41C112.863 24.73 112.513 23.48 111.813 22.66C111.113 21.84 110.173 21.43 108.993 21.43C107.813 21.43 106.873 21.84 106.173 22.66C105.473 23.48 105.123 24.73 105.123 26.41C105.123 28.09 105.473 29.35 106.173 30.19C106.873 31.01 107.813 31.42 108.993 31.42ZM120.207 34V22.63C120.207 22.01 120.187 21.38 120.147 20.74C120.107 20.1 120.047 19.47 119.967 18.85H123.597L123.897 21.85H123.537C124.017 20.79 124.727 19.98 125.667 19.42C126.607 18.84 127.697 18.55 128.937 18.55C130.717 18.55 132.057 19.05 132.957 20.05C133.857 21.05 134.307 22.61 134.307 24.73V34H130.557V24.91C130.557 23.69 130.317 22.82 129.837 22.3C129.377 21.76 128.677 21.49 127.737 21.49C126.577 21.49 125.657 21.85 124.977 22.57C124.297 23.29 123.957 24.25 123.957 25.45V34H120.207Z" fill="black"/>
<path d="M45.9925 23.108C46.0824 19.8555 45.3634 16.7837 44.0153 13.8023C43.9254 13.6216 43.9254 13.4409 43.8355 13.2602C41.0495 7.47796 36.6457 3.50269 30.7141 1.33436C26.7597 -0.111196 22.6255 -0.382238 18.4914 0.521233C17.2331 0.61158 15.9749 1.06332 14.8066 1.6054C13.0091 2.23783 11.3914 3.05095 9.95343 4.22546C8.69521 4.94824 7.61673 5.76136 6.718 6.84553C6.26864 7.29727 5.7294 7.749 5.36991 8.38143C4.7408 9.01386 4.20156 9.73664 3.7522 10.5498C3.03321 11.5436 2.49397 12.6277 2.04461 13.8023C1.77499 14.4347 1.4155 15.0671 1.32563 15.7899C0.606642 17.7775 0.157278 19.7652 0.157278 21.8431C0.157278 21.9335 0.0674047 22.1142 0.0674047 22.2045C-0.0224682 22.7466 -0.0224682 23.2887 0.0674047 23.8308C0.0674047 24.0115 0.0674047 24.1018 0.157278 24.1922C0.0674047 26.1798 0.426897 28.0771 1.05601 29.9744C1.32563 30.8779 1.59524 31.7813 2.13448 32.5945C2.76359 34.311 3.7522 35.847 4.83067 37.2022C4.92054 37.7442 5.36991 37.9249 5.63953 38.2863C8.24584 41.2678 11.3015 43.5265 15.0762 44.7913C15.4357 45.0624 15.885 45.1527 16.3344 45.243C16.5142 45.3334 16.6939 45.5141 16.9635 45.4237C18.761 45.9658 20.5584 46.1465 22.3559 45.8755C23.1648 45.8755 23.7939 45.6044 24.5128 45.243C24.9622 45.1527 25.3217 44.972 25.5913 44.6106C26.8495 43.7071 28.1078 42.7133 28.1976 40.9967C28.7369 40.9967 28.647 40.4547 28.7369 40.1836C29.0964 38.9188 29.0964 37.6539 29.0065 36.389C29.0964 36.0276 29.0964 35.5759 28.8267 35.2145C28.7369 34.7628 28.647 34.2207 28.5571 33.769C28.5571 32.9558 28.1976 32.6848 27.3888 32.8655C25.6812 33.3172 23.8837 33.2269 22.0863 33.1365C21.9065 33.1365 21.8167 33.1365 21.6369 33.0462C21.4572 32.8655 21.1875 32.8655 21.0078 32.8655C20.5584 32.7752 20.1989 32.6848 19.7496 32.5945C18.4015 31.6006 16.9635 30.8779 15.885 29.613C14.6268 27.8964 13.818 25.9991 13.2787 24.0115C13.3686 23.6501 13.1889 23.2887 13.099 22.9273C13.0091 20.3072 13.0091 17.5968 14.1775 15.1575C14.3572 14.9768 14.6268 14.7961 14.8066 14.7057C15.7053 14.525 16.604 14.4347 17.5028 14.0733H17.5926H17.6825C19.7496 13.8926 21.9065 13.8023 23.9736 14.0733C23.9736 14.0733 23.9736 14.0733 24.0635 14.0733C24.423 14.1636 24.7825 14.3443 25.142 14.4347C28.4673 15.3382 31.0736 17.2354 32.6913 20.3976C33.59 22.2949 33.9495 24.2825 33.7698 26.4508C33.5001 27.264 33.4103 28.0771 32.871 28.9806C29.9951 24.4632 26.1306 21.4818 21.2774 19.7652C20.8281 19.4941 20.3787 19.3134 19.6597 19.3134C20.0192 19.7652 20.3787 19.9459 20.8281 19.9459C24.3331 22.3852 27.7483 24.9149 30.3546 28.3481C31.8824 30.6068 32.871 33.0462 33.4103 35.7566C33.4103 36.9311 33.4103 38.1056 33.4103 39.1898C33.1406 40.9064 32.871 42.5326 32.2419 44.4299C34.6685 43.3458 36.7356 42.0809 38.4431 40.3643C38.8925 40.0933 39.252 39.7319 39.5216 39.2801C40.69 38.2863 41.5887 37.1118 42.3077 35.7566C42.757 35.2145 43.2064 34.6724 43.3862 33.9497C43.8355 33.4076 44.1051 32.6848 44.2849 32.0524C45.0039 30.6972 45.3634 29.2516 45.5431 27.8061C45.9026 26.7219 45.9925 25.6377 45.9925 24.5536C45.9925 24.0115 45.9925 23.5597 45.9925 23.108ZM3.84207 11.2725C3.84207 11.3629 3.84207 11.3629 3.7522 11.3629L3.84207 11.2725ZM33.8596 37.0215V36.9311C33.9495 37.0215 33.9495 37.2022 33.9495 37.2925C33.9495 37.2925 33.9495 37.2022 33.8596 37.0215ZM34.0394 35.1242C34.1292 35.1242 34.2191 35.1242 34.309 35.2145C34.2191 35.3049 34.2191 35.3952 34.0394 35.4856C34.0394 35.3952 34.0394 35.3049 34.0394 35.1242ZM6.80788 9.19455C6.62813 9.19455 6.89775 9.10421 6.80788 9.19455C6.80788 9.2849 6.80788 9.2849 6.80788 9.19455C6.80788 9.2849 6.80788 9.2849 6.80788 9.19455C6.80788 9.2849 6.80788 9.2849 6.80788 9.19455ZM6.89775 26.8122C6.80788 26.7219 6.62813 26.6315 6.53826 26.5412C6.718 26.6315 6.89775 26.7219 6.89775 26.8122ZM10.5825 32.5041C10.6724 32.5041 10.6724 32.5945 10.7623 32.5945C10.7623 32.5945 10.6724 32.5041 10.5825 32.5041ZM5.19016 14.254C5.28004 14.254 5.28004 14.254 5.19016 14.254C5.28004 14.254 5.28004 14.254 5.19016 14.254ZM11.8408 30.0647L11.9306 30.1551C11.9306 30.1551 11.9306 30.1551 11.8408 30.0647ZM13.099 24.8246C13.099 24.9149 13.099 24.9149 13.099 24.8246C13.099 24.9149 13.0091 24.9149 13.099 24.8246C13.0091 24.9149 13.099 24.8246 13.099 24.8246ZM15.6154 1.69575C15.7053 1.69575 15.7053 1.69575 15.6154 1.69575V1.69575ZM34.9381 13.2602L35.028 13.3505C34.9381 13.2602 34.9381 13.2602 34.9381 13.2602ZM5.63953 34.5821C5.45978 34.5821 5.28004 34.4917 5.28004 34.4014C5.36991 34.4917 5.45978 34.4917 5.63953 34.5821ZM19.9293 44.6106C19.9293 44.6106 20.0192 44.6106 19.9293 44.6106C20.0192 44.6106 20.0192 44.6106 19.9293 44.6106C20.0192 44.6106 20.0192 44.6106 19.9293 44.6106ZM32.9609 19.0424C32.9609 19.1327 32.9609 19.1327 32.9609 19.0424C32.9609 19.1327 32.871 19.1327 32.9609 19.0424C32.9609 19.1327 32.9609 19.0424 32.9609 19.0424ZM34.2191 38.9187C34.2191 38.9187 34.2191 39.0091 34.2191 38.9187V38.9187ZM3.30283 13.6216C3.21296 13.6216 3.12308 13.7119 2.94334 13.7119C3.03321 13.6216 3.03321 13.4409 3.12308 13.3505C3.21296 13.4409 3.21296 13.5312 3.30283 13.6216ZM2.13448 13.7119C2.04461 13.7119 2.04461 13.8023 2.13448 13.7119C2.04461 13.7119 2.04461 13.7119 2.13448 13.7119ZM3.48258 33.3172C3.48258 33.4076 3.57245 33.4076 3.66232 33.4979C3.57245 33.4979 3.48258 33.4076 3.48258 33.3172Z" fill="url(#paint0_linear_28_4904)"/>
<defs>
<linearGradient id="paint0_linear_28_4904" x1="23.367" y1="13.5521" x2="22.9961" y2="46" gradientUnits="userSpaceOnUse">
<stop stop-color="#FF6600"/>
<stop offset="1" stop-color="#BC4C01"/>
</linearGradient>
</defs>
</svg>
